<svg id="remaster_logo" xmlns="http://www.w3.org/2000/svg" viewBox="0 0 595.28 363.22"><defs><style>.cls-1,.cls-3{fill:#93d500;}.cls-1,.cls-4{fill-rule:evenodd;}.cls-2{fill:#006937;}.cls-4{fill:#fff;}</style></defs><title>logotipo Agualima remasterizer</title><path id="back_02" class="cls-1" d="M595.94,182a70.66,70.66,0,0,0-70.61-70.66V89.63H455.26a181.73,181.73,0,0,0-313.33,0H71.81v21.72c-.38,0-.76,0-1.14,0a70.67,70.67,0,1,0,0,141.33l1.14,0v21.25h70.12a181.73,181.73,0,0,0,313.33,0h70.07V252.65A70.67,70.67,0,0,0,595.94,182Z"/><path id="back_01" class="cls-2" d="M525.33,118.35h-7V96.66H451.24l-2-3.46A174.68,174.68,0,0,0,148,93.2l-2,3.46H78.85v21.83l-8.23-.14a63.64,63.64,0,0,0,0,127.27l8.18-.14v21.36H146l2,3.46a174.68,174.68,0,0,0,301.21,0l2-3.46H518.3V245.63h7a63.64,63.64,0,0,0,0-127.27Z"/><g id="border"><path class="cls-3" d="M298.59,26.72A154.9,154.9,0,0,1,432.24,103.2l6.12,10.38,1.63,2.77h58.63V138h5.62l21.07,0a43.95,43.95,0,0,1,0,87.89l-21.07,0h-5.62V247l-55.43.11H440l-1.63,2.76-6.12,10.38a155,155,0,0,1-267.29,0l-6.12-10.38-1.63-2.77H98.53V225.48l-5.71.09-21.63.34-.62,0a44,44,0,0,1-43.85-44C26.72,157.75,46.3,138,70.27,138l22.54.38,5.72.09V116.35H157.2l1.63-2.77L165,103.2A154.9,154.9,0,0,1,298.59,26.72m0-5.63a160.56,160.56,0,0,0-138.48,79.25L154,110.73H92.91v22l-22.55-.38a49.58,49.58,0,0,0,.31,99.16l.71,0,21.53-.34v21.58H154l6.12,10.39a160.61,160.61,0,0,0,277,0l6.12-10.39,61-.12V231.58l21.08,0a49.58,49.58,0,0,0,0-99.15l-21.08,0V110.73h-61l-6.12-10.39a160.6,160.6,0,0,0-138.5-79.25Z"/></g><g id="right_leaf"><path class="cls-3" d="M522.75,184.59a20.83,20.83,0,0,0,3.62,0,28.23,28.23,0,0,1,.24-6.3c.12-.74.27-1.46.44-2.18l-.87-.57c-1.78-1.15-3.77-2.56-4.45-4.64,1.18,1.81,3.21,2.53,5.14,3.2l.67.23a34.06,34.06,0,0,1,2.38-5.92,32.21,32.21,0,0,0-2.91,9.93,28.75,28.75,0,0,0,.68,10.25,34.23,34.23,0,0,0,2.92,7.69,11.15,11.15,0,0,0,2-1.47,9.46,9.46,0,0,0,1.76-2.44,31.43,31.43,0,0,0,2.19-5.91,32.55,32.55,0,0,1-1.46,6.23,10.57,10.57,0,0,1-1.6,2.92,13.43,13.43,0,0,1-2.19,2c.08.13.14.28.22.41a27.6,27.6,0,0,0,6.54,7.68l0,0,0,0a.79.79,0,0,1-1,1.21,28.64,28.64,0,0,1-6.6-8.34,35.26,35.26,0,0,1-3.64-9.89c-.17-.86-.31-1.72-.41-2.59a22.49,22.49,0,0,1-3.93-.81,6.4,6.4,0,0,1-3.25-2.3A6,6,0,0,0,522.75,184.59Z"/><path class="cls-1" d="M546.68,167s3.16,15.81-.38,21.33-9.09,3.84-8.42.54c0,0,3.68-4.65.92-6.71,0,0-3.25-2.54-4.67,4.59,0,0-5-.62-3.06-6.4C532.87,174.81,539.19,174.7,546.68,167Z"/><path class="cls-1" d="M502.57,175.47s12.72-3.4,17.39-.63,3.57,7.57.85,7.14c0,0-4.1-3-5.51-.48,0,0-1.91,2.88,4,3.78,0,0-.27,4.23-5.07,2.89C509.59,186.88,509.2,181.51,502.57,175.47Z"/><path class="cls-1" d="M516.12,162.62s-1.27,6.45.53,8.63,4.46,1.41,4.07.09c0,0-1.81-1.79-.55-2.71,0,0,1.53-1.08,2.34,1.79a1.74,1.74,0,0,0,1.37-2.64C522.92,165.56,519.87,165.61,516.12,162.62Z"/><path class="cls-1" d="M534.32,157s-7.62,2.73-8.52,6.28,1.89,6.15,3,4.83c0,0,.31-3.2,2.38-2.42,0,0,2.27,1.09-.09,3.91,0,0,2.13,2.58,3.76-.12S534,163.36,534.32,157Z"/></g><g id="left_leaf"><path class="cls-3" d="M73.2,184.59a21,21,0,0,1-3.63,0,27.65,27.65,0,0,0-.24-6.3c-.11-.74-.27-1.46-.44-2.18l.87-.57c1.78-1.15,3.77-2.56,4.45-4.64-1.18,1.81-3.2,2.53-5.13,3.2l-.67.23A35.72,35.72,0,0,0,66,168.42a32.49,32.49,0,0,1,2.91,9.93,29,29,0,0,1-.69,10.25,34.23,34.23,0,0,1-2.92,7.69,11.5,11.5,0,0,1-2-1.47,9.7,9.7,0,0,1-1.76-2.44,32.14,32.14,0,0,1-2.19-5.91,31.84,31.84,0,0,0,1.47,6.23,10.31,10.31,0,0,0,1.6,2.92,12.66,12.66,0,0,0,2.19,2c-.08.13-.15.28-.23.41a27.6,27.6,0,0,1-6.54,7.68l0,0,0,0a.79.79,0,0,0-.09,1.12.78.78,0,0,0,1.12.09,28.84,28.84,0,0,0,6.61-8.34A35.55,35.55,0,0,0,69,188.77c.17-.86.31-1.72.42-2.59a22.87,22.87,0,0,0,3.93-.81,6.49,6.49,0,0,0,3.25-2.3A6,6,0,0,1,73.2,184.59Z"/><path class="cls-1" d="M49.26,167s-3.16,15.81.39,21.33,9.09,3.84,8.41.54c0,0-3.68-4.65-.92-6.71,0,0,3.25-2.54,4.68,4.59,0,0,4.94-.62,3.06-6.4C63.07,174.81,56.76,174.7,49.26,167Z"/><path class="cls-1" d="M93.37,175.47s-12.72-3.4-17.39-.63-3.57,7.57-.85,7.14c0,0,4.11-3,5.51-.48,0,0,1.91,2.88-4,3.78,0,0,.27,4.23,5.07,2.89C86.35,186.88,86.74,181.51,93.37,175.47Z"/><path class="cls-1" d="M79.82,162.62s1.27,6.45-.53,8.63-4.45,1.41-4.07.09c0,0,1.81-1.79.55-2.71,0,0-1.53-1.08-2.33,1.79a1.74,1.74,0,0,1-1.38-2.64C73,165.56,76.08,165.61,79.82,162.62Z"/><path class="cls-1" d="M61.63,157s7.62,2.73,8.51,6.28-1.89,6.15-3,4.83c0,0-.3-3.2-2.38-2.42,0,0-2.26,1.09.09,3.91,0,0-2.13,2.58-3.76-.12S61.9,163.36,61.63,157Z"/></g><path id="name" class="cls-4" d="M159.27,174.45l9.61-23.92a19.58,19.58,0,0,0-7.29,3.37,31.51,31.51,0,0,0-6.21,5.75,68.57,68.57,0,0,0-4.81,6.74q-2.23,3.57-4.7,8.06ZM145,176.07c-.23.47-1,2-2.38,4.63s-3.06,5.66-5.09,9.12a28.34,28.34,0,0,1-6.42,7.89,13.46,13.46,0,0,1-8.7,2.7,10.85,10.85,0,0,1-7.33-2.56,8.71,8.71,0,0,1-3-7,9.2,9.2,0,0,1,2.77-6.77,10.09,10.09,0,0,1,13.33-.49,7.8,7.8,0,0,1,2.63,6.21,8.28,8.28,0,0,1-.56,3.08,5.55,5.55,0,0,1-1.3,2.07,16.72,16.72,0,0,1-2.17,1.58q-1.44.91-1.44,1.62a1.4,1.4,0,0,0,.77.42,7.1,7.1,0,0,0,3.75-1.62,19.28,19.28,0,0,0,4.6-5.08,96.54,96.54,0,0,0,4.94-8.49q2.64-5,6.81-12.28t6.66-10.94q2.49-3.69,8.81-7.9t15.64-4.2c2.48,0,4.42,0,5.83.14s2.64.21,3.71.35l-17,42.23q-1.76,4.42-1.76,5.61c0,1.13.68,1.74,2,1.86s3.15.18,5.4.18v1.12h-34v-1.12c.56,0,1.23,0,2-.11l2.88-.28a4.49,4.49,0,0,0,2.95-1.54,25.39,25.39,0,0,0,3.19-5.86l6-14.59Zm66-5.76a2.78,2.78,0,0,0-.49-1.78,1.89,1.89,0,0,0-1.55-.6c-.79,0-1.74.69-2.84,2.07a44.23,44.23,0,0,0-4.1,6.87q-2.46,4.8-5.3,11.71t-2.84,8.73a1.48,1.48,0,0,0,.28,1,1,1,0,0,0,.84.35,5.65,5.65,0,0,0,4.21-2.16A34.26,34.26,0,0,0,202,193a43.06,43.06,0,0,0,2.67-5.12q1.78-3.82,4-9.37c1.5-3.68,2.25-6.42,2.25-8.2Zm16.56-4H214.07l-2.18,5.12.07-1.2a3.84,3.84,0,0,0-1.72-3.57,7.61,7.61,0,0,0-4.1-1.06q-9.42,0-16.75,8.21t-7.33,16.57a9.57,9.57,0,0,0,2.81,7.16,9.73,9.73,0,0,0,7,2.74,10.52,10.52,0,0,0,6.67-2.15,22.55,22.55,0,0,0,5.14-6l.21.07q-2.32,5.26-4.81,10.7a34.12,34.12,0,0,1-5.38,8.64,8.66,8.66,0,0,1-6.6,3.19,6.82,6.82,0,0,1-2.57-.38c-.58-.26-.87-.55-.87-.88s.25-.56.77-.56a5.54,5.54,0,0,0,4.07-1.54,5.12,5.12,0,0,0,1.54-3.78,5.6,5.6,0,0,0-1.9-4.28,6.53,6.53,0,0,0-4.59-1.75,6.23,6.23,0,0,0-4.9,2,6.57,6.57,0,0,0-1.8,4.52,6.74,6.74,0,0,0,3,5.46,11.48,11.48,0,0,0,7.27,2.32q10.89,0,17.64-5.27t10.89-14.87q4.14-9.61,6.84-16.45t5-12.94Zm8.48,34a8.35,8.35,0,0,1-5.64-2q-2.35-2-2.35-6.18a12.51,12.51,0,0,1,.84-4.21q.84-2.31,2.28-5.4c1-2.06,2.28-4.66,4-7.82s2.53-5,2.53-5.65a1.34,1.34,0,0,0-.25-.91,1,1,0,0,0-.8-.28,3.54,3.54,0,0,0-1.86.84,14.83,14.83,0,0,0-2.32,2.11,31.39,31.39,0,0,0-2.67,3.5q-1.5,2.25-2.63,4.35l-.91-.42a58.4,58.4,0,0,1,6.35-9.26,10.23,10.23,0,0,1,8.1-3.3,6.81,6.81,0,0,1,5.55,2.28,8.36,8.36,0,0,1,1.89,5.51,13.91,13.91,0,0,1-1.12,5.47c-.7,1.45-1.39,2.93-2.07,4.42s-1.86,3.81-3.54,7-2.53,5.31-2.53,6.52a1.56,1.56,0,0,0,.32,1.06,1.12,1.12,0,0,0,.87.35c1.13,0,2.32-.79,3.58-2.35a48.34,48.34,0,0,0,3.16-4.35,40.47,40.47,0,0,0,2.24-4l10.18-21.11h13.68L260.93,193c-.23.61-.51,1.34-.84,2.18a5.79,5.79,0,0,0-.49,1.82,1.11,1.11,0,0,0,.21.74.8.8,0,0,0,.63.25,5,5,0,0,0,3.75-2,41.3,41.3,0,0,0,3.26-4.24q1.55-2.28,3.3-5.37l.84.49a67.92,67.92,0,0,1-6.87,10,10.1,10.1,0,0,1-8,3.44,6.91,6.91,0,0,1-5.3-2.07,8.2,8.2,0,0,1-1.93-5.79,13.11,13.11,0,0,1,.35-3c.24-1,.43-1.73.57-2.25a69.56,69.56,0,0,1-6.63,9.89,9.65,9.65,0,0,1-7.76,3.23Zm83.42-34L307.3,193c-.14.29-.37.89-.7,1.83a7.71,7.71,0,0,0-.49,1.75,1.36,1.36,0,0,0,.25.88.86.86,0,0,0,.73.32,5.13,5.13,0,0,0,2.74-1.41,23.47,23.47,0,0,0,3.75-4,35.25,35.25,0,0,0,3.61-5.72l.92.42a56.47,56.47,0,0,1-4,6.49,18.22,18.22,0,0,1-5.15,4.77,13.74,13.74,0,0,1-7.44,1.93,6.74,6.74,0,0,1-5.26-1.93q-1.75-1.92-1.76-5.79a23.51,23.51,0,0,1-5.22,5.9,10.63,10.63,0,0,1-6.42,1.82,9.35,9.35,0,0,1-6.91-2.7,9.54,9.54,0,0,1-2.7-7q0-8.28,7.61-16.59t16.87-8.32a7.42,7.42,0,0,1,3.93,1.06,3.56,3.56,0,0,1,1.75,3.29l-.21,1.69,2.46-5.33Zm-17,3.78a2.49,2.49,0,0,0-.45-1.64,1.8,1.8,0,0,0-1.44-.53c-.89,0-1.91.7-3.05,2.1a47.33,47.33,0,0,0-4.46,7.37q-2.73,5.26-5.47,11.65t-2.74,8.27a1.6,1.6,0,0,0,.28,1,1,1,0,0,0,.85.35,5.64,5.64,0,0,0,4.13-2.14,36.56,36.56,0,0,0,3-3.65,39.12,39.12,0,0,0,2.77-5.12q1.73-3.62,4.14-9.3c1.62-3.79,2.42-6.57,2.42-8.35Zm30.73-14c.56-1.4.95-2.43,1.16-3.08a5.84,5.84,0,0,0,.31-1.76,1.38,1.38,0,0,0-1.15-1.44,19.08,19.08,0,0,0-4.25-.31v-1.12H350q-2.38,5.82-5.83,14.27l-8.27,20.35q-4.85,11.89-5.09,12.59a4.54,4.54,0,0,0-.25,1.47,1.3,1.3,0,0,0,.28.92,1,1,0,0,0,.71.28q1.89,0,3.82-2.32a51.14,51.14,0,0,0,3.3-4.35q1.37-2,2.49-3.86l1,.49a53.74,53.74,0,0,1-6.56,9.12,9.45,9.45,0,0,1-7.12,2.88,8.32,8.32,0,0,1-6.24-2.52,8.05,8.05,0,0,1-2.46-5.76,11.68,11.68,0,0,1,.35-2.94,24,24,0,0,1,1.05-3l12.07-29.89ZM345.47,177l.91.42a34.15,34.15,0,0,1,3.75-5.72,21,21,0,0,1,3-3.08,3.52,3.52,0,0,1,1.65-.88.87.87,0,0,1,1,1,5.24,5.24,0,0,1-.49,1.76c-.33.79-1,2.29-2.11,4.48s-2.32,4.71-3.75,7.51-2.36,4.81-2.81,6a11.59,11.59,0,0,0-.66,4,8.07,8.07,0,0,0,2,5.58,7.32,7.32,0,0,0,5.76,2.21q5.19,0,7.75-2.73a60.19,60.19,0,0,0,6.35-8.91l-.92-.5q-.84,1.55-2.13,3.48c-.87,1.28-1.7,2.42-2.5,3.4a12.18,12.18,0,0,1-2.45,2.35,4,4,0,0,1-2,.88,1.27,1.27,0,0,1-.94-.32,1.3,1.3,0,0,1-.32-.95c0-.88.87-2.86,2.6-5.92s3.08-5.62,4.07-7.65,1.75-3.83,2.31-5.37a12.28,12.28,0,0,0,.84-4.14q0-4.14-2.28-6.21a7.72,7.72,0,0,0-5.36-2.07,10.37,10.37,0,0,0-6.35,2.18Q349.4,170,345.47,177Zm14.31-22.8a6.11,6.11,0,0,1,2-4.7,7,7,0,0,1,9.47,0,6.51,6.51,0,0,1,0,9.36,6.71,6.71,0,0,1-4.74,1.86,6.54,6.54,0,0,1-4.73-1.86,6.19,6.19,0,0,1-1.93-4.66Zm76.54,34.37a51.81,51.81,0,0,1-6.63,8.75c-2,2-4.76,3-8.31,3a6.68,6.68,0,0,1-5.51-2.32A8.49,8.49,0,0,1,414,192.5a12.78,12.78,0,0,1,.56-4,32.82,32.82,0,0,1,1.51-3.69q.94-2,4-7.92t3-7.69a1.65,1.65,0,0,0-.32-1.12,1.31,1.31,0,0,0-1-.35,3.54,3.54,0,0,0-2,1,20.23,20.23,0,0,0-2.94,3.33,34.9,34.9,0,0,0-3.37,5.69q-1.62,3.33-4.28,9.08t-3.93,8.48c-.84,1.82-1.5,3.25-2,4.28H389.53c.23-.51,1.29-2.89,3.19-7.12s3.76-8.38,5.61-12.48,2.89-6.39,3.12-6.91a19.81,19.81,0,0,0,.74-1.89,6.11,6.11,0,0,0,.38-2,1.77,1.77,0,0,0-.31-1.15,1.15,1.15,0,0,0-.95-.39,3.52,3.52,0,0,0-2.1,1,15.07,15.07,0,0,0-2.42,2.6,39.07,39.07,0,0,0-2.42,3.58,36.57,36.57,0,0,0-2,3.64l-10.31,21.11H368.41l12.14-26.65.66-1.65a6.19,6.19,0,0,0,.53-2.28,1.54,1.54,0,0,0-.28-1,1.08,1.08,0,0,0-.84-.32,4,4,0,0,0-2,.91A15.27,15.27,0,0,0,376,171a30,30,0,0,0-2.56,3.37c-.84,1.26-1.75,2.78-2.74,4.54l-.84-.42Q373.6,171,377,168.3a11.24,11.24,0,0,1,7.05-2.71,7.42,7.42,0,0,1,5.55,2.33,7.78,7.78,0,0,1,2.24,5.62,20.84,20.84,0,0,1-.14,2.6,13.66,13.66,0,0,1-.42,2l.21.07c2.62-5.15,4.92-8.56,6.91-10.19a10.08,10.08,0,0,1,6.56-2.47,9,9,0,0,1,6,2,6.65,6.65,0,0,1,2.35,5.31,10.7,10.7,0,0,1-.35,2.81c-.38,1-.63,1.69-.77,2.11a50.36,50.36,0,0,1,6.13-9.42c1.71-1.87,4.3-2.82,7.76-2.82a8.13,8.13,0,0,1,5.68,2c1.5,1.35,2.24,3.46,2.24,6.31a11.22,11.22,0,0,1-.73,4.21c-.49,1.21-1.27,2.92-2.32,5.12s-2.41,4.86-4.07,8-2.49,5-2.49,5.75a1.57,1.57,0,0,0,.28,1,.93.93,0,0,0,.78.35c1.35,0,2.78-.81,4.27-2.48a40.47,40.47,0,0,0,3.44-4.24c.8-1.17,1.57-2.36,2.32-3.57l.84.49Zm47.56-22.23L471.75,193a18.66,18.66,0,0,0-.7,1.83,7.71,7.71,0,0,0-.49,1.75,1.42,1.42,0,0,0,.24.88.88.88,0,0,0,.74.32,5.15,5.15,0,0,0,2.73-1.41,23.89,23.89,0,0,0,3.76-4,36,36,0,0,0,3.61-5.72l.91.42a56.46,56.46,0,0,1-4,6.49,18.12,18.12,0,0,1-5.16,4.77,13.74,13.74,0,0,1-7.44,1.93,6.75,6.75,0,0,1-5.26-1.93q-1.76-1.92-1.75-5.79a23.52,23.52,0,0,1-5.23,5.9,10.63,10.63,0,0,1-6.42,1.82,9.37,9.37,0,0,1-6.91-2.7,9.54,9.54,0,0,1-2.7-7q0-8.28,7.61-16.59t16.88-8.32a7.42,7.42,0,0,1,3.93,1.06,3.58,3.58,0,0,1,1.75,3.29l-.21,1.69,2.45-5.33Zm-17,3.78a2.43,2.43,0,0,0-.46-1.64,1.77,1.77,0,0,0-1.44-.53c-.89,0-1.9.7-3.05,2.1a47.47,47.47,0,0,0-4.45,7.37q-2.75,5.26-5.48,11.65t-2.73,8.27a1.54,1.54,0,0,0,.28,1,1,1,0,0,0,.84.35,5.67,5.67,0,0,0,4.14-2.14,36.56,36.56,0,0,0,3-3.65,40.38,40.38,0,0,0,2.77-5.12q1.71-3.62,4.14-9.3T466.91,170.1Z"/><g id="text_footer"><path class="cls-4" d="M254.83,287.57c-.67-.34-1.37-.28-1.6.2l-5.37,11.08a6,6,0,0,0-3.54-4.81,7,7,0,0,0-9.42,3l-1.75,3.59a7.23,7.23,0,0,0,3.32,9.37,6.44,6.44,0,0,0,6.16-.14l-.7,1.43a1.28,1.28,0,0,0,2.22,1.1l11.42-23.54C255.79,288.44,255.48,287.88,254.83,287.57Zm-8.77,14.93-2.22,4.64c-.48,1-3.46,2.37-6,1.13a5,5,0,0,1-2.36-6.44l1.74-3.6a5,5,0,0,1,6.52-2A4.68,4.68,0,0,1,246.06,302.5Z"/><path class="cls-4" d="M215.77,274.44l.26-.26c4.13-3.91,3.17-8,0-11.33L211,257.51a1,1,0,0,0-1.4-.2l-18.14,17.15c-.45.43-.25,1.13.2,1.64s1.15.73,1.6.28l7.2-6.81,4,4.19C207.59,277.16,211.64,278.35,215.77,274.44Zm-13.83-6.3,8.43-8,4,4.19c2.45,2.56,2.61,5.32-.14,7.93l-.34.31c-2.76,2.62-5.51,2.33-8-.25Z"/><path class="cls-4" d="M220.67,282.4l1.09.87a1.12,1.12,0,0,0,1.52-.23,1.06,1.06,0,0,0-.14-1.49l-1.1-.87a6.11,6.11,0,0,0-6-1.07l1.13-1.41a1.1,1.1,0,0,0-.42-1.46c-.57-.45-1.24-.5-1.55-.11l-9.67,12.15a1.22,1.22,0,0,0,.42,1.55,1.17,1.17,0,0,0,1.6.08l5.65-7.11A5.24,5.24,0,0,1,220.67,282.4Z"/><path class="cls-4" d="M266.53,302.92c-.67-.22-1.37,0-1.51.45l-2.87,9.4a5,5,0,0,1-9.56-2.93l2.86-9.36c.14-.42-.31-1.07-.95-1.27a1.21,1.21,0,0,0-1.52.51l-2.87,9.36c-1.07,3.46,1.21,7.6,5.23,8.81s8.21-.85,9.28-4.36l2.9-9.4C267.66,303.68,267.24,303.12,266.53,302.92Z"/><path class="cls-4" d="M230.14,286.14c-3.46-2.31-8.07-1.5-10.09,1.54l-2.2,3.35c-2,3.06-.9,7.76,2.48,10s8.21,1.41,10.21-1.6l2.19-3.35C234.81,292.91,233.55,288.39,230.14,286.14Zm.43,8.49-2.2,3.35a5,5,0,0,1-6.83,1.2,5,5,0,0,1-1.52-6.72l2.19-3.34a5,5,0,0,1,8.36,5.51Z"/><path class="cls-4" d="M277.11,304.72c-5.23-.81-8.07,1.83-8.69,5.66l-.59,3.88c-.62,4,1.32,7.25,6.58,8.1,3.46.53,6-.54,6.13-1.49a1.2,1.2,0,0,0-1-1.35c-.79-.14-1.63,1.15-4.67.67-3.49-.53-4.92-2.59-4.47-5.54l.59-3.85c.48-2.93,2.47-4.42,5.9-3.88,2.9.45,3.35,1.88,4.11,2a1.28,1.28,0,0,0,1.32-1C282.48,307,280.48,305.26,277.11,304.72Z"/><path class="cls-4" d="M382.68,292.52c-.7.51-.48,2.16-3,4-2.87,2.06-6,2.06-7.73-.33l-.79-1.1,7.34-5.26c1.44-1,2.79-2.14,1.13-4.42-2.25-3.17-6.75-3.37-10-1.06-3.43,2.41-4.41,6.94-2.28,9.92l2.39,3.35c2.45,3.37,6.95,3.57,11.06.65,3-2.17,4-4.76,3.45-5.46A1.24,1.24,0,0,0,382.68,292.52Zm-12.57,1.12-.82-1.12a5,5,0,0,1,8.22-5.71c.59.84.39,1.24-.9,2.17Z"/><path class="cls-4" d="M292.66,306.78l-5.15-.45.65-7.34c.06-.51-.59-.93-1.24-1s-1.29.26-1.35.76L283.89,318c-.34,3.76,1.71,5.56,5.82,5.9l1.12.11a1.17,1.17,0,0,0,1.3-1,1.18,1.18,0,0,0-1.13-1.18l-1.1-.09c-2.75-.25-3.62-1.18-3.43-3.54l.87-9.95,5.15.45a1,1,0,0,0,1-.9A1,1,0,0,0,292.66,306.78Z"/><path class="cls-4" d="M384.25,282.17a5.27,5.27,0,0,1,.51-7.51l1.07-.9a1.12,1.12,0,0,0,.08-1.52,1.1,1.1,0,0,0-1.51-.17l-1.07.93a6.22,6.22,0,0,0-2.17,5.68L380,277.3a1.11,1.11,0,0,0-1.49.15c-.56.47-.73,1.12-.42,1.51l10.12,11.76a1.16,1.16,0,0,0,1.58-.09,1.21,1.21,0,0,0,.39-1.6Z"/><path class="cls-4" d="M363.25,287.26c-2.62-5-6.78-5.23-10.89-3.09l-6.52,3.4c-.59.34-.82.87-.59,1.29L356.78,311c.28.57,1,.57,1.6.26s1-.93.73-1.47l-4.55-8.8,5.09-2.64c4.16-2.17,6.41-5.74,3.77-10.77Zm-4.56,9.25-5.09,2.65-5.37-10.32,5.09-2.65c3.15-1.63,5.85-1.07,7.62,2.34l.2.39C362.91,292.29,361.84,294.88,358.69,296.51Z"/><path class="cls-4" d="M334.06,301.94l-5.57,1.35-.93-4a4.61,4.61,0,0,1,3.68-5.39l.65-.17a1.06,1.06,0,0,0,.84-1.3,1.08,1.08,0,0,0-1.35-.81l-.95.22a7,7,0,0,0-5.37,8.24l4.72,19.74c.14.57.76.79,1.44.62s1.23-.67,1.09-1.21L329,305.2l5.54-1.32a1,1,0,0,0-.45-1.94Z"/><path class="cls-4" d="M324.3,311.14c-.48-3.74-4.42-6.36-8.44-5.85s-7.09,4.13-6.64,7.79l.51,4c.48,3.63,4.39,6.47,8.38,5.94s7.14-4.28,6.69-7.88Zm-6.47,9.67a5,5,0,0,1-5.51-4.11l-.51-4a5,5,0,0,1,9.9-1.27l.51,4A5,5,0,0,1,317.83,320.81Z"/><path class="cls-4" d="M403.88,267.12l-6.18-5.42-1.24-1.1c-.37-.28-1-.11-1.49.42s-.56,1.27-.2,1.58l2.36,2.08,5,4.39a5,5,0,0,1,.22,6.86,4.92,4.92,0,0,1-6.8.64l-7.37-6.44c-.34-.31-1.1-.16-1.55.34a1.21,1.21,0,0,0-.17,1.6l7.37,6.47c2.73,2.39,7.43,2,10.18-1.18S406.64,269.54,403.88,267.12Z"/></g></svg>